# xmcd CD database file
#
# Track frame offsets:
#	150
#	17783
#	36615
#	50175
#	64133
#
# Disc length: 1078 seconds
#
# Revision: 0
# Processed by: cddbd v1.4PL0 Copyright (c) Steve Scherf et al.
# Submitted via: CDex 1.40Beta9
#
DISCID=49043405
DTITLE=Bonny Tyler - Lost in France
DYEAR=19991
DGENRE=Blues
TTITLE0=Lost in France
TTITLE1=More Than A Lover
TTITLE2=My Guns are Loaded
TTITLE3=Heaven
TTITLE4=Living For The City
EXTD=YEAR: 19991 ID3G: 0
EXTT0=
EXTT1=
EXTT2=
EXTT3=
EXTT4=
PLAYORDER=
